<?xml version="1.0" encoding="UTF-8" standalone="no"?><!DOCTYPE svg PUBLIC "-//W3C//DTD SVG 1.1//EN" "http://www.w3.org/Graphics/SVG/1.1/DTD/svg11.dtd"><svg width="100%" height="100%" viewBox="0 0 32 32" version="1.1" xmlns="http://www.w3.org/2000/svg" xmlns:xlink="http://www.w3.org/1999/xlink" xml:space="preserve" xmlns:serif="http://www.serif.com/" style="fill-rule:evenodd;clip-rule:evenodd;stroke-linejoin:round;stroke-miterlimit:2;"><rect width="100%" height="100%" fill="white"/><rect x="7.333" y="24.667" width="2.167" height="2.167"/><rect x="5.167" y="22.5" width="2.167" height="2.167"/><rect x="7.333" y="7.333" width="2.167" height="2.167"/><rect x="9.5" y="5.167" width="2.167" height="2.167"/><rect x="26.833" y="9.5" width="2.167" height="6.5"/><rect x="3" y="16" width="2.167" height="6.5"/><rect x="5.167" y="9.5" width="2.167" height="6.5"/><rect x="20.333" y="20.333" width="4.333" height="2.167"/><rect x="20.333" y="11.667" width="2.167" height="4.333"/><rect x="18.167" y="16" width="2.167" height="4.333"/><rect x="24.667" y="16.047" width="2.167" height="4.333"/><rect x="24.667" y="5.167" width="2.167" height="4.333"/><rect id="v" x="13.833" y="9.5" width="6.5" height="2.167"/><rect x="11.667" y="11.667" width="2.167" height="4.333"/><rect x="9.5" y="16" width="2.167" height="4.333"/><rect x="11.667" y="20.333" width="6.5" height="2.167"/><rect x="9.5" y="26.833" width="8.667" height="2.167"/><rect x="11.667" y="3" width="13" height="2.167"/></svg>